<?xml version="1.0" encoding="UTF-8"?>
<svg version="1.1" xmlns="http://www.w3.org/2000/svg" width="174" height="141">
<path d="M0 0 C3.18753637 0.03158175 6.37457732 0.04102918 9.56225586 0.046875 C11.60718376 0.05603177 13.65210667 0.06640326 15.69702148 0.078125 C17.11267647 0.08449982 17.11267647 0.08449982 18.55693054 0.09100342 C23.1339814 0.14065525 27.46345894 0.35070075 31.96655273 1.28125 C31.96655273 1.94125 31.96655273 2.60125 31.96655273 3.28125 C32.62655273 3.28125 33.28655273 3.28125 33.96655273 3.28125 C33.96655273 12.19125 33.96655273 21.10125 33.96655273 30.28125 C30.90398155 31.0468928 28.98259681 31.40221261 25.95507812 31.37890625 C24.78719505 31.37395142 24.78719505 31.37395142 23.59571838 31.36889648 C22.34262123 31.35644897 22.34262123 31.35644897 21.06420898 31.34375 C19.75388954 31.33807007 19.75388954 31.33807007 18.417099 31.33227539 C14.69288247 31.31602466 10.96877739 31.28817125 7.24462891 31.26074219 C-14.21454369 30.00394092 -14.21454369 30.00394092 -34.03344727 36.28125 C-40.96171777 43.5984255 -42.41569413 52.44269812 -42.34594727 62.15625 C-42.34248291 62.94346436 -42.33901855 63.73067871 -42.33544922 64.54174805 C-42.22397501 70.51639624 -41.4315776 75.76102545 -39.03344727 81.28125 C-38.68282227 82.209375 -38.33219727 83.1375 -37.97094727 84.09375 C-33.75327261 88.85564075 -28.44996193 90.99880646 -22.18560791 91.73098755 C-18.4032381 91.91122481 -14.62414879 91.91149619 -10.83832169 91.87283516 C-8.30714127 91.84718381 -5.77757024 91.85228463 -3.24630737 91.86473083 C2.11649468 91.88535154 7.47878458 91.86583333 12.84155273 91.84375 C19.08068411 91.8226169 25.31929428 91.81804994 31.55841446 91.84425163 C34.04931648 91.84760984 36.53921578 91.82641297 39.02999878 91.80384827 C40.55426248 91.80635882 42.07852493 91.80991814 43.6027832 91.81469727 C44.29269852 91.80181168 44.98261383 91.78892609 45.69343567 91.77565002 C49.03020485 91.81057212 50.71418013 92.08849867 53.39840698 94.13859558 C55.46018132 96.95572523 55.42793872 98.67333691 55.35717773 102.140625 C55.34428711 103.25566406 55.33139648 104.37070313 55.31811523 105.51953125 C55.2678418 107.25783203 55.2678418 107.25783203 55.21655273 109.03125 C55.19850586 110.20558594 55.18045898 111.37992187 55.16186523 112.58984375 C55.11474394 115.4878034 55.04896579 118.38411418 54.96655273 121.28125 C50.58915676 122.94738947 46.95580336 123.53717092 42.28125 123.5559082 C40.96870743 123.56544022 39.65616486 123.57497223 38.30384827 123.58479309 C36.88021823 123.58453142 35.45658819 123.58359319 34.03295898 123.58203125 C32.55289084 123.58592577 31.07282381 123.59026198 29.59275818 123.59501648 C26.49018742 123.60246632 23.38773042 123.60219915 20.28515625 123.59692383 C16.35190139 123.59117065 12.41912383 123.6079645 8.48594761 123.6312685 C5.42542394 123.64617438 2.36501027 123.64685431 -0.69554329 123.64375877 C-2.14289344 123.64426491 -3.59025096 123.64936603 -5.03756523 123.65957069 C-23.11536553 123.77127457 -40.4229084 121.00860766 -54.49047852 108.80859375 C-67.58345473 95.79606593 -73.21899255 79.56970203 -73.28344727 61.34375 C-73.27499069 43.80649508 -69.47930811 27.26116831 -57.03344727 14.28125 C-41.47930136 -0.22107866 -19.98122727 -0.19979666 0 0 Z " fill="#5923CB" transform="translate(73.033447265625,17.71875)"/>
<path d="M0 0 C3.43734063 -0.08703823 6.87439837 -0.14040272 10.3125 -0.1875 C11.28896484 -0.21263672 12.26542969 -0.23777344 13.27148438 -0.26367188 C14.20927734 -0.27333984 15.14707031 -0.28300781 16.11328125 -0.29296875 C16.97735596 -0.3086792 17.84143066 -0.32438965 18.73168945 -0.34057617 C21.58512289 0.08785345 22.27182202 0.71417421 24 3 C24.36914349 5.50872326 24.36914349 5.50872326 24.36076355 8.56181335 C24.36488754 9.71867645 24.36901154 10.87553955 24.3732605 12.06745911 C24.36247467 13.33772446 24.35168884 14.60798981 24.34057617 15.91674805 C24.33973002 17.26692689 24.34020481 18.61710712 24.34190369 19.96728516 C24.34276553 23.63446653 24.32510941 27.3013544 24.30418181 30.96846747 C24.28544642 34.80015566 24.28366706 38.63185035 24.28010559 42.46357727 C24.27077587 49.72027406 24.24614963 56.9768355 24.21605712 64.23347265 C24.18254188 72.49455094 24.16603435 80.75563566 24.15097082 89.016765 C24.11960082 106.011255 24.0668224 123.00561319 24 140 C19.7928881 142.10355595 14.30994707 141.27374276 9.6875 141.3125 C8.54603516 141.34150391 7.40457031 141.37050781 6.22851562 141.40039062 C5.12572266 141.40876953 4.02292969 141.41714844 2.88671875 141.42578125 C1.37404419 141.44765503 1.37404419 141.44765503 -0.16918945 141.4699707 C-3.94369894 140.84332726 -5.37535107 139.79277114 -8 137 C-8.47723506 133.93644277 -8.63486709 131.43506362 -8.56762695 128.37597656 C-8.56835709 127.50732468 -8.56908722 126.63867279 -8.56983948 125.74369812 C-8.56635878 122.87536963 -8.52747539 120.00866942 -8.48828125 117.140625 C-8.47895483 115.15094897 -8.47183791 113.16126145 -8.46684265 111.17156982 C-8.44775947 105.93683118 -8.39864693 100.70278712 -8.34332275 95.46832275 C-8.29215895 90.12611284 -8.26933472 84.7837906 -8.24414062 79.44140625 C-8.19052978 68.96063246 -8.10520069 58.48037401 -8 48 C-9.26457031 48.08378906 -10.52914062 48.16757812 -11.83203125 48.25390625 C-13.4921684 48.35707862 -15.15232575 48.45992631 -16.8125 48.5625 C-17.64587891 48.61857422 -18.47925781 48.67464844 -19.33789062 48.73242188 C-20.14033203 48.78076172 -20.94277344 48.82910156 -21.76953125 48.87890625 C-22.50792236 48.9260376 -23.24631348 48.97316895 -24.00708008 49.02172852 C-26 49 -26 49 -29 48 C-31.29755922 44.55366118 -31.23643976 43.28931609 -31.1953125 39.23828125 C-31.18886719 38.12001953 -31.18242188 37.00175781 -31.17578125 35.84960938 C-31.15902344 34.68236328 -31.14226562 33.51511719 -31.125 32.3125 C-31.11597656 31.13365234 -31.10695313 29.95480469 -31.09765625 28.74023438 C-31.07406423 25.82661974 -31.0411454 22.91341108 -31 20 C-26.34157763 17.52602484 -21.56770727 16.84422329 -16.41015625 15.87890625 C-13.07417858 15.01911819 -10.86085363 13.86577411 -8 12 C-7.01 11.67 -6.02 11.34 -5 11 C-3.92745649 8.73774618 -3.92745649 8.73774618 -3 6 C-2.01285349 3.99362472 -1.01430692 1.99278234 0 0 Z " fill="#A291E9" transform="translate(139,0)"/>
<path d="M0 0 C0.66 0.33 1.32 0.66 2 1 C2 46.21 2 91.42 2 138 C-2.22763409 140.11381704 -7.792588 139.2293903 -12.4375 139.25 C-13.59572266 139.270625 -14.75394531 139.29125 -15.94726562 139.3125 C-17.61112305 139.32023437 -17.61112305 139.32023437 -19.30859375 139.328125 C-20.83697876 139.34214355 -20.83697876 139.34214355 -22.39624023 139.35644531 C-25.34348774 138.95297777 -26.211024 138.3130349 -28 136 C-25.36 135.67 -22.72 135.34 -20 135 C-19.9175 134.443125 -19.835 133.88625 -19.75 133.3125 C-19 131 -19 131 -17.1875 128.75 C-11.87146432 122.06698371 -10.41160298 116.40589328 -10.51757812 107.94726562 C-10.51366562 106.97383713 -10.50975311 106.00040863 -10.50572205 104.9974823 C-10.49977072 102.89629256 -10.50287405 100.79506137 -10.5141449 98.69389343 C-10.53147044 95.36388076 -10.52386427 92.03473131 -10.5098877 88.70471191 C-10.48459483 81.63641518 -10.4900458 74.56832357 -10.5 67.5 C-10.51153975 59.30580603 -10.51032888 51.11203354 -10.47593689 42.91789246 C-10.468861 39.64509278 -10.48549646 36.37296626 -10.50305176 33.10021973 C-10.4973422 31.08438763 -10.49052409 29.06855827 -10.48242188 27.05273438 C-10.49373642 26.14964035 -10.50505096 25.24654633 -10.51670837 24.31608582 C-10.4514677 17.50281824 -8.91708232 11.91708232 -4 7 C-3.01 7 -2.02 7 -1 7 C-0.67 4.69 -0.34 2.38 0 0 Z " fill="#5C5295" transform="translate(161,2)"/>
<path d="M0 0 C3.18753637 0.03158175 6.37457732 0.04102918 9.56225586 0.046875 C11.60718376 0.05603177 13.65210667 0.06640326 15.69702148 0.078125 C17.11267647 0.08449982 17.11267647 0.08449982 18.55693054 0.09100342 C23.1339814 0.14065525 27.46345894 0.35070075 31.96655273 1.28125 C31.96655273 1.94125 31.96655273 2.60125 31.96655273 3.28125 C29.65655273 3.61125 27.34655273 3.94125 24.96655273 4.28125 C24.69842773 5.23 24.43030273 6.17875 24.15405273 7.15625 C22.96655273 10.28125 22.96655273 10.28125 19.96655273 12.28125 C17.34935789 12.47489687 14.83016391 12.55822664 12.21264648 12.5546875 C10.61823911 12.57503039 9.02383816 12.59588191 7.42944336 12.6171875 C4.94216534 12.63945802 2.45514542 12.65612712 -0.03222656 12.66210938 C-9.12473395 12.69890253 -17.84135719 13.12629066 -26.74829102 15.0703125 C-27.46457169 15.22486908 -28.18085236 15.37942566 -28.9188385 15.53866577 C-38.12220701 17.7471284 -45.69943184 22.20868336 -52.03344727 29.28125 C-53.77902382 32.17204586 -54.92775587 35.09956658 -56.03344727 38.28125 C-56.30672852 38.90515625 -56.58000977 39.5290625 -56.86157227 40.171875 C-63.01364574 54.52671312 -61.44196923 71.13963884 -60.03344727 86.28125 C-64.7257814 81.58891586 -65.6773949 75.18875576 -66.34594727 68.84375 C-66.43005859 68.06604248 -66.51416992 67.28833496 -66.60083008 66.48706055 C-67.56452181 55.82703101 -67.08425552 42.35746239 -61.03344727 33.28125 C-60.78594727 32.394375 -60.53844727 31.5075 -60.28344727 30.59375 C-57.07841954 22.10042652 -50.64119526 15.87206366 -42.46313477 12.09375 C-28.96440781 6.86347403 -14.65373898 6.14161059 -0.31103516 6.31396484 C3.25865549 6.27833441 6.78204805 6.04989186 10.34155273 5.78125 C11.58678711 5.6884375 12.83202148 5.595625 14.11499023 5.5 C15.52651367 5.39171875 15.52651367 5.39171875 16.96655273 5.28125 C11.08075654 5.20634755 5.19524594 5.15229678 -0.69091797 5.11645508 C-2.68771201 5.1014924 -4.68447391 5.08111489 -6.68115234 5.05493164 C-25.52843195 4.81420756 -40.62211992 5.76019373 -54.78344727 19.34375 C-60.42987619 24.99985161 -63.78947624 30.53340973 -66.03344727 38.28125 C-66.26161133 39.01085938 -66.48977539 39.74046875 -66.72485352 40.4921875 C-71.54944196 57.56380814 -70.50370781 78.54360615 -62.03344727 94.28125 C-59.95587544 97.24472981 -57.80847711 100.10953413 -55.54516602 102.93359375 C-55.04629883 103.70832031 -54.54743164 104.48304687 -54.03344727 105.28125 C-54.36344727 106.27125 -54.69344727 107.26125 -55.03344727 108.28125 C-69.17043491 93.30775421 -73.51593139 76.45781117 -73.24829102 56.25 C-72.76126184 40.49566508 -68.05651515 25.77732267 -57.03344727 14.28125 C-41.47930136 -0.22107866 -19.98122727 -0.19979666 0 0 Z " fill="#421AAB" transform="translate(73.033447265625,17.71875)"/>
<path d="M0 0 C6.93 0 13.86 0 21 0 C21 0.99 21 1.98 21 3 C20.319375 3.20625 19.63875 3.4125 18.9375 3.625 C14.64167781 5.63581038 10.08221501 8.31388685 8.23828125 12.890625 C8.05652344 13.54546875 7.87476563 14.2003125 7.6875 14.875 C5.91690727 20.66561773 0.90005641 23.82762306 -4 27 C-6.54571081 28.15207351 -8.53949755 28.95021595 -11.3125 29.25 C-15.58500731 30.44232762 -18.79524628 32.97757362 -22 36 C-23.06246527 37.96752828 -24.07137808 39.96587579 -25 42 C-27.6875 44.375 -27.6875 44.375 -30 46 C-31 45 -31 45 -31.11352539 42.59155273 C-31.10828857 41.54942627 -31.10305176 40.5072998 -31.09765625 39.43359375 C-31.09443359 38.30888672 -31.09121094 37.18417969 -31.08789062 36.02539062 C-31.07951172 34.84138672 -31.07113281 33.65738281 -31.0625 32.4375 C-31.05798828 31.24962891 -31.05347656 30.06175781 -31.04882812 28.83789062 C-31.03699675 25.89187774 -31.02051287 22.94596319 -31 20 C-26.34157763 17.52602484 -21.56770727 16.84422329 -16.41015625 15.87890625 C-13.07417858 15.01911819 -10.86085363 13.86577411 -8 12 C-7.01 11.67 -6.02 11.34 -5 11 C-3.92745649 8.73774618 -3.92745649 8.73774618 -3 6 C-2.01 4.02 -1.02 2.04 0 0 Z " fill="#BDA9E6" transform="translate(139,0)"/>
<path d="M0 0 C0.99 0 1.98 0 3 0 C3.1875 2.3125 3.1875 2.3125 3 5 C2.50760204 5.46202253 2.01520409 5.92404507 1.50788498 6.40006828 C-0.44281556 8.46984662 -0.35746051 9.47947296 -0.31365967 12.28640747 C-0.30467148 13.59831306 -0.30467148 13.59831306 -0.29550171 14.9367218 C-0.27371857 15.89362411 -0.25193542 16.85052643 -0.22949219 17.83642578 C-0.21868622 18.84653214 -0.20788025 19.85663849 -0.19674683 20.89735413 C-0.17191232 23.09420843 -0.14046 25.29099546 -0.10323334 27.48767471 C-0.04649657 30.9685298 -0.01177459 34.44894802 0.01629639 37.93014526 C0.09884346 47.82891259 0.21120629 57.72705136 0.36328125 67.625 C0.45472007 73.67790186 0.51168115 79.7303342 0.54732513 85.78380966 C0.56774964 88.0875468 0.60130565 90.39120739 0.64841461 92.69455338 C0.71365549 95.92602762 0.73504713 99.15515686 0.74707031 102.38720703 C0.79189041 103.80434242 0.79189041 103.80434242 0.83761597 105.25010681 C0.79303104 112.76801719 -2.06164943 116.54899785 -7 122 C-7.85512057 123.16596767 -8.70940149 124.33255204 -9.5625 125.5 C-12.39678471 128.40695868 -14.0071961 128.81428819 -18 129 C-17.34 128.67 -16.68 128.34 -16 128 C-15.87625 127.4225 -15.7525 126.845 -15.625 126.25 C-15 124 -15 124 -13.1875 121.75 C-7.87146432 115.06698371 -6.41160298 109.40589328 -6.51757812 100.94726562 C-6.51170937 99.48712288 -6.51170937 99.48712288 -6.50572205 97.9974823 C-6.49977072 95.89629256 -6.50287405 93.79506137 -6.5141449 91.69389343 C-6.53147044 88.36388076 -6.52386427 85.03473131 -6.5098877 81.70471191 C-6.48459483 74.63641518 -6.4900458 67.56832357 -6.5 60.5 C-6.51153975 52.30580603 -6.51032888 44.11203354 -6.47593689 35.91789246 C-6.468861 32.64509278 -6.48549646 29.37296626 -6.50305176 26.10021973 C-6.4973422 24.08438763 -6.49052409 22.06855827 -6.48242188 20.05273438 C-6.49373642 19.14964035 -6.50505096 18.24654633 -6.51670837 17.31608582 C-6.4514677 10.50281824 -4.91708232 4.91708232 0 0 Z " fill="#655AAA" transform="translate(157,9)"/>
<path d="M0 0 C3.18753637 0.03158175 6.37457732 0.04102918 9.56225586 0.046875 C11.60718376 0.05603177 13.65210667 0.06640326 15.69702148 0.078125 C17.11267647 0.08449982 17.11267647 0.08449982 18.55693054 0.09100342 C23.1339814 0.14065525 27.46345894 0.35070075 31.96655273 1.28125 C31.96655273 1.94125 31.96655273 2.60125 31.96655273 3.28125 C31.30273087 3.28267502 30.638909 3.28410004 29.95497131 3.28556824 C22.96111247 3.30546165 15.96810355 3.36014873 8.97460938 3.43383789 C6.3747368 3.45684277 3.77477335 3.47137185 1.17480469 3.47680664 C-21.6612644 3.53390779 -40.01488909 4.72693201 -56.80175781 21.4152832 C-61.52872111 26.4146194 -64.0645448 31.69011461 -66.03344727 38.28125 C-66.26290039 39.01214844 -66.49235352 39.74304687 -66.72875977 40.49609375 C-71.53241382 57.57951132 -70.50922445 78.5333563 -62.03344727 94.28125 C-59.95587544 97.24472981 -57.80847711 100.10953413 -55.54516602 102.93359375 C-55.04629883 103.70832031 -54.54743164 104.48304687 -54.03344727 105.28125 C-54.36344727 106.27125 -54.69344727 107.26125 -55.03344727 108.28125 C-69.17043491 93.30775421 -73.51593139 76.45781117 -73.24829102 56.25 C-72.76126184 40.49566508 -68.05651515 25.77732267 -57.03344727 14.28125 C-41.47930136 -0.22107866 -19.98122727 -0.19979666 0 0 Z " fill="#220D5C" transform="translate(73.033447265625,17.71875)"/>
<path d="M0 0 C0.99 0.33 1.98 0.66 3 1 C5.46777529 1.10922885 7.90883887 1.16444798 10.37719727 1.17358398 C11.12544769 1.180271 11.87369812 1.18695801 12.6446228 1.19384766 C14.26844727 1.20788996 15.89229137 1.21978663 17.51614571 1.22979546 C20.0835857 1.24620354 22.65087917 1.26943904 25.21824646 1.29469299 C32.51741247 1.36549046 39.8166367 1.42571069 47.1159668 1.47680664 C51.58042982 1.50853647 56.0447217 1.54979055 60.50904655 1.59700203 C62.2127164 1.61305153 63.91642563 1.62535941 65.62014961 1.63390923 C67.99767656 1.64601669 70.37479813 1.67014445 72.75219727 1.69702148 C73.81435204 1.6979052 73.81435204 1.6979052 74.89796448 1.69880676 C79.77209801 1.77209801 79.77209801 1.77209801 82 4 C75.25 6 75.25 6 73 6 C73 6.66 73 7.32 73 8 C69.92488491 9.78232446 67.69864624 10.25208776 64.15893555 10.25878906 C63.20081467 10.26509338 62.24269379 10.27139771 61.25553894 10.27789307 C59.71172295 10.27182037 59.71172295 10.27182037 58.13671875 10.265625 C57.07137405 10.26753845 56.00602936 10.2694519 54.90840149 10.27142334 C52.65483362 10.27278391 50.40125788 10.26909641 48.14770508 10.26074219 C44.71091923 10.2500727 41.27465987 10.26062569 37.83789062 10.2734375 C35.64583219 10.27211526 33.45377407 10.26955154 31.26171875 10.265625 C30.23858078 10.26967346 29.21544281 10.27372192 28.16130066 10.27789307 C22.71355927 10.24239791 18.1493188 9.81100638 13 8 C13 7.34 13 6.68 13 6 C12.22914062 5.86722656 11.45828125 5.73445313 10.6640625 5.59765625 C9.66117188 5.42105469 8.65828125 5.24445313 7.625 5.0625 C6.62726562 4.88847656 5.62953125 4.71445313 4.6015625 4.53515625 C2 4 2 4 0 3 C0 2.01 0 1.02 0 0 Z " fill="#351587" transform="translate(44,108)"/>
<path d="M0 0 C0.66 0.33 1.32 0.66 2 1 C2 46.21 2 91.42 2 138 C-2.22763409 140.11381704 -7.792588 139.2293903 -12.4375 139.25 C-13.59572266 139.270625 -14.75394531 139.29125 -15.94726562 139.3125 C-17.61112305 139.32023437 -17.61112305 139.32023437 -19.30859375 139.328125 C-20.83697876 139.34214355 -20.83697876 139.34214355 -22.39624023 139.35644531 C-25 139 -25 139 -28 136 C-19.09 136 -10.18 136 -1 136 C-1.00523682 132.34204346 -1.01047363 128.68408691 -1.01586914 124.9152832 C-1.03247662 112.79750212 -1.04355092 100.67972182 -1.05181217 88.56193256 C-1.05695231 81.21860992 -1.06395114 73.87529811 -1.07543945 66.53198242 C-1.08545642 60.12605617 -1.09187 53.72013778 -1.09408849 47.31420392 C-1.09538377 43.92732246 -1.09839375 40.54046346 -1.10573006 37.15358925 C-1.1130425 33.3579948 -1.11398666 29.56244612 -1.11352539 25.7668457 C-1.11712067 24.66344345 -1.12071594 23.5600412 -1.12442017 22.42320251 C-1.11460845 14.90872318 -0.67108626 7.48371841 0 0 Z " fill="#443F6D" transform="translate(161,2)"/>
<path d="M0 0 C0.66 0.33 1.32 0.66 2 1 C1.51195389 1.95098572 1.02390778 2.90197144 0.52107239 3.8817749 C-1.46179283 8.54090415 -1.39737655 12.89079907 -1.3371582 17.89160156 C-1.33798904 19.34429695 -1.33798904 19.34429695 -1.33883667 20.82633972 C-1.33857761 22.92046382 -1.33173477 25.01459537 -1.31899452 27.10868073 C-1.30055747 30.43094882 -1.30330482 33.75258881 -1.3120575 37.07489014 C-1.3338225 46.51763657 -1.32301287 55.96014091 -1.28491211 65.40283203 C-1.26304978 71.18828043 -1.2704163 76.97311075 -1.2953701 82.75853729 C-1.29894953 84.95441495 -1.2913775 87.15034187 -1.27211952 89.346138 C-1.07979737 111.71192102 -1.07979737 111.71192102 -8 120 C-8.53921585 120.52088196 -9.0784317 121.04176392 -9.63398743 121.57843018 C-11.26127021 123.06830702 -11.26127021 123.06830702 -12 126 C-14.97 126.495 -14.97 126.495 -18 127 C-16.515 126.505 -16.515 126.505 -15 126 C-14.9175 125.0925 -14.835 124.185 -14.75 123.25 C-13.87419062 119.45482602 -12.77767824 118.61895377 -10 116 C-5.00093452 109.45578981 -5.49504329 103.22927984 -5.64453125 95.2265625 C-5.65679888 93.21111791 -5.66906271 91.19567329 -5.68109417 89.18022728 C-5.70296235 86.37459296 -5.74348164 83.56933893 -5.78363037 80.76391602 C-5.85024274 75.82868595 -5.88659506 70.89313399 -5.92399597 65.95761108 C-5.94578168 63.33223723 -5.97452506 60.70691062 -6.01069641 58.08169556 C-6.03017586 56.31383194 -6.03017586 56.31383194 -6.05004883 54.51025391 C-6.07147697 52.94641464 -6.07147697 52.94641464 -6.09333801 51.35098267 C-6 49 -6 49 -5 48 C-4.89989015 45.90165976 -4.86918833 43.79994475 -4.8671875 41.69921875 C-4.86589844 40.41208984 -4.86460937 39.12496094 -4.86328125 37.79882812 C-4.86537598 37.12408447 -4.8674707 36.44934082 -4.86962891 35.75415039 C-4.87495071 33.7064666 -4.86969798 31.65900481 -4.86328125 29.61132812 C-4.86457031 28.32033203 -4.86585938 27.02933594 -4.8671875 25.69921875 C-4.86831543 24.51158936 -4.86944336 23.32395996 -4.87060547 22.1003418 C-4.97882751 19.50730073 -5.32875435 17.47534532 -6 15 C-5.76184005 8.80784131 -3.46491492 4.9224806 0 0 Z M-4 35 C-3 37 -3 37 -3 37 Z " fill="#7F72D5" transform="translate(153,11)"/>
<path d="M0 0 C16.83 0 33.66 0 51 0 C49.68 0.33 48.36 0.66 47 1 C47 1.66 47 2.32 47 3 C43.34869069 5.32108607 39.82166772 5.31132113 35.62890625 5.34375 C34.55164528 5.3656842 34.55164528 5.3656842 33.45262146 5.38806152 C31.15597143 5.43442742 28.85940058 5.46862487 26.5625 5.5 C6.21678505 5.31894819 6.21678505 5.31894819 -13 11 C-13.99 12.485 -13.99 12.485 -15 14 C-16.65267699 15.02295481 -18.32102592 16.02080451 -20 17 C-23.14400409 19.51520327 -26.07481324 22.23502665 -29 25 C-29.58523437 25.53496094 -30.17046875 26.06992187 -30.7734375 26.62109375 C-39.42221492 35.42352965 -39.62091801 48.7127234 -39.75 60.3125 C-39.77825578 61.65042743 -39.808196 62.98832038 -39.83984375 64.32617188 C-39.90969214 67.5508392 -39.96280734 70.7748193 -40 74 C-40.33 74 -40.66 74 -41 74 C-43.10481654 60.01106545 -45.30839038 42.46258558 -37 30 C-36.7525 29.113125 -36.505 28.22625 -36.25 27.3125 C-33.04497227 18.81917652 -26.60774799 12.59081366 -18.4296875 8.8125 C-5.82442282 3.92840884 7.5741072 2.89273588 21 3 C27.6749948 3 34.34196837 2.47557369 41 2 C20.705 1.505 20.705 1.505 0 1 C0 0.67 0 0.34 0 0 Z " fill="#381690" transform="translate(49,21)"/>
<path d="M0 0 C0.99 0 1.98 0 3 0 C3 8.58 3 17.16 3 26 C-0.06257118 26.7656428 -1.98395593 27.12096261 -5.01147461 27.09765625 C-6.17935768 27.09270142 -6.17935768 27.09270142 -7.37083435 27.08764648 C-8.6239315 27.07519897 -8.6239315 27.07519897 -9.90234375 27.0625 C-11.21266319 27.05682007 -11.21266319 27.05682007 -12.54945374 27.05102539 C-16.27367026 27.03477466 -19.99777534 27.00692125 -23.72192383 26.97949219 C-45.18109642 25.72269092 -45.18109642 25.72269092 -65 32 C-71.89104247 39.27785775 -73.37953033 48.08296892 -73.3125 57.75 C-73.31121094 58.52843262 -73.30992188 59.30686523 -73.30859375 60.10888672 C-73.20000288 66.69085092 -72.06308966 72.73704924 -70 79 C-75.64562299 73.93760252 -76.66396589 67.96429428 -77.2890625 60.58984375 C-77.54340917 50.15006897 -76.54109612 37.98469 -69 30 C-63.41309987 26.06556329 -58.28797598 23.87132897 -51.42700195 23.88647461 C-50.28604568 23.88655014 -49.14508942 23.88662567 -47.96955872 23.88670349 C-46.73823715 23.89186478 -45.50691559 23.89702606 -44.23828125 23.90234375 C-42.97735153 23.9037587 -41.71642181 23.90517365 -40.4172821 23.90663147 C-37.06848291 23.91128425 -33.71975189 23.92026658 -30.37097168 23.93133545 C-26.95239857 23.94157313 -23.53381841 23.94613414 -20.11523438 23.95117188 C-13.41013496 23.96220901 -6.70507683 23.9794778 0 24 C0 16.08 0 8.16 0 0 Z " fill="#822FFB" transform="translate(104,22)"/>
<path d="M0 0 C3.5865054 1.33213058 6.87682483 2.76916059 10 5 C10 5.99 10 6.98 10 8 C10.92683594 8.19335938 11.85367188 8.38671875 12.80859375 8.5859375 C14.00613281 8.84632812 15.20367187 9.10671875 16.4375 9.375 C17.63246094 9.63023438 18.82742187 9.88546875 20.05859375 10.1484375 C21.02925781 10.42945312 21.99992187 10.71046875 23 11 C23.33 11.66 23.66 12.32 24 13 C29.58968859 14.457728 35.42883342 14.14410243 41.1640625 14.1328125 C42.23369232 14.13376923 43.30332214 14.13472595 44.40536499 14.13571167 C46.65956684 14.13639042 48.91377068 14.13455746 51.16796875 14.13037109 C54.61983615 14.12500802 58.07157407 14.13033187 61.5234375 14.13671875 C63.71614612 14.13605812 65.90885466 14.13477727 68.1015625 14.1328125 C69.13391022 14.13483673 70.16625793 14.13686096 71.22988892 14.13894653 C72.67191177 14.13421829 72.67191177 14.13421829 74.14306641 14.12939453 C75.4083165 14.12820114 75.4083165 14.12820114 76.6991272 14.12698364 C78.92772854 14.00398861 80.86135683 13.62013689 83 13 C83 12.34 83 11.68 83 11 C85.97 10.505 85.97 10.505 89 10 C88.01 10.33 87.02 10.66 86 11 C85.896875 11.78375 85.79375 12.5675 85.6875 13.375 C85 16 85 16 82 18 C79.49116516 18.25396729 79.49116516 18.25396729 76.4621582 18.25878906 C75.32700272 18.26509338 74.19184723 18.27139771 73.02229309 18.27789307 C71.79419418 18.2738446 70.56609528 18.26979614 69.30078125 18.265625 C67.40455269 18.26849518 67.40455269 18.26849518 65.47001648 18.27142334 C62.7908264 18.27278596 60.11199962 18.27008689 57.43286133 18.26074219 C54.01793059 18.24940531 50.60331627 18.25587126 47.18839741 18.26788712 C43.91334787 18.27691028 40.63833495 18.27056351 37.36328125 18.265625 C35.53631462 18.27169769 35.53631462 18.27169769 33.67243958 18.27789307 C27.42710143 18.24368326 21.9747006 17.85652195 16 16 C16 15.34 16 14.68 16 14 C15.37351562 13.92523438 14.74703125 13.85046875 14.1015625 13.7734375 C11.60137915 13.3711998 9.36210497 12.91956485 7 12 C5.75 9.1875 5.75 9.1875 5 6 C2.47943955 3.22847788 2.47943955 3.22847788 0 1 C0 0.67 0 0.34 0 0 Z " fill="#3C1895" transform="translate(34,103)"/>
<path d="M0 0 C0.99 0.495 0.99 0.495 2 1 C2 9.25 2 17.5 2 26 C-3.01378784 27.67126261 -5.63841864 28.25442848 -10.68530273 28.2746582 C-12.65411659 28.28895622 -12.65411659 28.28895622 -14.66270447 28.30354309 C-16.0863345 28.30328142 -17.50996455 28.30234319 -18.93359375 28.30078125 C-20.41366189 28.30467577 -21.89372893 28.30901198 -23.37379456 28.31376648 C-26.47636532 28.32121632 -29.57882232 28.32094915 -32.68139648 28.31567383 C-36.61465134 28.30992065 -40.5474289 28.3267145 -44.48060513 28.3500185 C-47.54112879 28.36492438 -50.60154247 28.36560431 -53.66209602 28.36250877 C-55.10944618 28.36301491 -56.5568037 28.36811603 -58.00411797 28.37832069 C-70.82162518 28.45752089 -83.11513844 27.0935121 -95 22 C-95 21.67 -95 21.34 -95 21 C-90.03030577 21.50539263 -85.15116437 22.1465652 -80.23168945 23.01318359 C-72.14922097 24.26315608 -64.13487351 24.35264173 -55.98046875 24.4140625 C-54.38478142 24.43282193 -52.78910352 24.45239868 -51.19343567 24.4727478 C-47.0393129 24.52357169 -42.88515814 24.5634599 -38.730896 24.60089111 C-34.47351496 24.64124689 -30.21626121 24.69219335 -25.95898438 24.7421875 C-17.63941063 24.83835585 -9.31977265 24.92294508 -1 25 C-1.00523682 24.27820557 -1.01047363 23.55641113 -1.01586914 22.81274414 C-1.03657358 19.56267151 -1.04963918 16.31261272 -1.0625 13.0625 C-1.07087891 11.92619141 -1.07925781 10.78988281 -1.08789062 9.61914062 C-1.09111328 8.53955078 -1.09433594 7.45996094 -1.09765625 6.34765625 C-1.10289307 5.34742432 -1.10812988 4.34719238 -1.11352539 3.31665039 C-1 1 -1 1 0 0 Z " fill="#782DFD" transform="translate(126,113)"/>
<path d="M0 0 C0.99 0.33 1.98 0.66 3 1 C1.02 2.32 -0.96 3.64 -3 5 C-2.625 3.0625 -2.625 3.0625 -2 1 C-1.34 0.67 -0.68 0.34 0 0 Z M-4 5 C-3.01 5.99 -3.01 5.99 -2 7 C-3.29699409 9.59398819 -4.33234869 9.92611845 -7 11 C-14.44686221 12.24572268 -22.03462656 12.03668092 -29.55639648 11.88378906 C-44.42689221 11.59677837 -57.31795536 11.50962975 -70 20 C-70.99 20 -71.98 20 -73 20 C-66.58454296 11.83487286 -53.72841267 10.25082848 -44 9 C-36.75508748 8.44733597 -29.47215277 8.52088243 -22.21044922 8.48876953 C-19.75980578 8.47314224 -17.30982129 8.44023047 -14.859375 8.40625 C-14.11258484 8.40927124 -13.36579468 8.41229248 -12.59637451 8.41540527 C-8.50944503 8.3815306 -8.50944503 8.3815306 -5.00878906 6.47460938 C-4.67588867 5.98798828 -4.34298828 5.50136719 -4 5 Z M-75 21 C-74.34 21.33 -73.68 21.66 -73 22 C-73.86625 22.7425 -73.86625 22.7425 -74.75 23.5 C-80.83608688 30.26231876 -82.10893595 38.19646108 -83.44921875 46.92578125 C-84.00651979 50.03639062 -84.80001349 53.01313398 -85.625 56.0625 C-87.71894197 64.94650622 -86.53540126 73.11849787 -85 82 C-88.43348252 78.41723563 -88.75583831 74.75005475 -89 70 C-89.05285156 68.98679688 -89.10570313 67.97359375 -89.16015625 66.9296875 C-89.55238285 51.95686336 -87.32326459 34.01686997 -76.75 22.5625 C-75.88375 21.7890625 -75.88375 21.7890625 -75 21 Z " fill="#4B1DBF" transform="translate(100,21)"/>
<path d="M0 0 C0.66 0 1.32 0 2 0 C2 29.7 2 59.4 2 90 C1.01 90 0.02 90 -1 90 C-1.02312228 78.41311598 -1.0409145 66.82623741 -1.05181217 55.23933506 C-1.05704125 49.85966238 -1.06413935 44.48000542 -1.07543945 39.1003418 C-1.08626745 33.91325157 -1.09227665 28.72617651 -1.09487724 23.53907585 C-1.09673165 21.5554372 -1.10035256 19.57179942 -1.10573006 17.58816719 C-1.11293932 14.81990864 -1.11399099 12.05171362 -1.11352539 9.28344727 C-1.11712067 8.45482681 -1.12071594 7.62620636 -1.12442017 6.7724762 C-1.11405216 1.11405216 -1.11405216 1.11405216 0 0 Z " fill="#EBCAFA" transform="translate(132,47)"/>
<path d="M0 0 C0.99 0 1.98 0 3 0 C3 0.99 3 1.98 3 3 C2.38125 3.2475 1.7625 3.495 1.125 3.75 C-1.43950881 5.25853459 -1.90157302 6.27328433 -3 9 C-3.30084164 11.10907149 -3.30084164 11.10907149 -3.26501465 13.35092163 C-3.27328781 14.2144072 -3.28156097 15.07789276 -3.29008484 15.96754456 C-3.28861198 17.3765226 -3.28861198 17.3765226 -3.28710938 18.81396484 C-3.29394241 19.80952896 -3.30077545 20.80509308 -3.30781555 21.83082581 C-3.32140218 23.99209714 -3.33045634 26.15340062 -3.33552551 28.31470871 C-3.34381092 31.73609372 -3.36431341 35.15721136 -3.38806152 38.57852173 C-3.43630643 45.84397484 -3.46922445 53.10945464 -3.5 60.375 C-3.53567077 68.78733277 -3.5776134 77.19953511 -3.63594055 85.61174393 C-3.65599615 88.98079408 -3.66432659 92.34974417 -3.67224121 95.71884155 C-3.68521605 97.78831342 -3.69873672 99.85778196 -3.71289062 101.92724609 C-3.71141777 103.33015144 -3.71141777 103.33015144 -3.70991516 104.76139832 C-3.75523985 109.52291836 -3.94498485 113.6034501 -6 118 C-9.125 120.375 -9.125 120.375 -12 122 C-10.31495914 116.42640332 -10.31495914 116.42640332 -8.44883728 113.89997864 C-6.35149169 109.70195206 -6.59198526 105.91903001 -6.63110352 101.2878418 C-6.6254538 99.82835617 -6.6254538 99.82835617 -6.61968994 98.33938599 C-6.61326228 96.22996165 -6.61358298 94.12050835 -6.61987495 92.0110836 C-6.6289892 88.66879835 -6.6187564 85.32707363 -6.60325623 81.9848175 C-6.5631699 72.48345817 -6.56195181 62.98214272 -6.56420898 53.48071289 C-6.56426016 47.66524975 -6.54505439 41.85008841 -6.51487541 36.03470802 C-6.50406885 32.74866214 -6.51617099 29.4631969 -6.52870178 26.1771698 C-6.51979403 24.15155469 -6.50971849 22.12594426 -6.49829102 20.1003418 C-6.50803452 19.19253464 -6.51777802 18.28472748 -6.52781677 17.34941101 C-6.45124345 10.5246429 -4.92669662 4.92669662 0 0 Z " fill="#7569C5" transform="translate(157,9)"/>
<path d="M0 0 C0.99 0.33 1.98 0.66 3 1 C5.46777529 1.10922885 7.90883887 1.16444798 10.37719727 1.17358398 C11.12544769 1.180271 11.87369812 1.18695801 12.6446228 1.19384766 C14.26844727 1.20788996 15.89229137 1.21978663 17.51614571 1.22979546 C20.0835857 1.24620354 22.65087917 1.26943904 25.21824646 1.29469299 C32.51741247 1.36549046 39.8166367 1.42571069 47.1159668 1.47680664 C51.58042982 1.50853647 56.0447217 1.54979055 60.50904655 1.59700203 C62.2127164 1.61305153 63.91642563 1.62535941 65.62014961 1.63390923 C67.99767656 1.64601669 70.37479813 1.67014445 72.75219727 1.69702148 C73.81435204 1.6979052 73.81435204 1.6979052 74.89796448 1.69880676 C79.77209801 1.77209801 79.77209801 1.77209801 82 4 C80.33830101 5.66169899 78.32833774 5.13169209 76.10806274 5.14663696 C75.40885712 5.14618378 74.70965149 5.14573059 73.98925781 5.14526367 C73.25587189 5.14862228 72.52248596 5.1519809 71.76687622 5.15544128 C69.32894216 5.16498248 66.8910766 5.16689627 64.453125 5.16796875 C62.76259329 5.1711802 61.07206187 5.17454419 59.38153076 5.17805481 C55.83051917 5.18405475 52.27953193 5.18589393 48.72851562 5.18530273 C44.18106354 5.18520131 39.63376827 5.19882962 35.0863533 5.21607494 C31.59132167 5.22720441 28.09632775 5.22922162 24.60128021 5.22869301 C22.92517305 5.22987262 21.2490649 5.23429333 19.57297516 5.24202538 C17.22464617 5.2518401 14.87665493 5.24894097 12.52832031 5.24291992 C11.83721161 5.24853943 11.14610291 5.25415894 10.43405151 5.25994873 C6.51691401 5.23447146 3.53090216 4.71339175 0 3 C0 2.01 0 1.02 0 0 Z " fill="#120731" transform="translate(44,108)"/>
<path d="M0 0 C0.63186722 0.14210907 1.26373444 0.28421814 1.91474915 0.43063354 C9.66282046 2.02272509 17.08890458 2.2613383 24.98046875 2.1953125 C26.27447098 2.1924826 27.56847321 2.18965271 28.90168762 2.18673706 C32.30303003 2.17918596 35.70419523 2.15961345 39.10546875 2.1373291 C42.59177251 2.11668436 46.07810555 2.10769597 49.56445312 2.09765625 C56.3763738 2.07635729 63.18817834 2.04232763 70 2 C70.495 2.99 70.495 2.99 71 4 C67.61964878 6.03860676 65.01861725 6.25282439 61.1015625 6.25878906 C59.31951416 6.26824554 59.31951416 6.26824554 57.50146484 6.27789307 C56.22223145 6.2738446 54.94299805 6.26979614 53.625 6.265625 C51.65007568 6.26849518 51.65007568 6.26849518 49.63525391 6.27142334 C46.85118914 6.27436847 44.06725292 6.27009674 41.28320312 6.26074219 C37.71881884 6.24934788 34.15473578 6.25591064 30.59036255 6.26788712 C27.1852177 6.27686146 23.78015341 6.27057375 20.375 6.265625 C18.4561499 6.27169769 18.4561499 6.27169769 16.49853516 6.27789307 C15.31050293 6.27158875 14.1224707 6.26528442 12.8984375 6.25878906 C11.85349121 6.25719788 10.80854492 6.25560669 9.73193359 6.25396729 C6.98859943 5.99894018 5.33927781 5.41076096 3 4 C3 3.34 3 2.68 3 2 C2.01 2 1.02 2 0 2 C0 1.34 0 0.68 0 0 Z " fill="#491DBD" transform="translate(47,118)"/>
<path d="M0 0 C0.99 0 1.98 0 3 0 C3 8.58 3 17.16 3 26 C-0.32402904 26.83100726 -2.60420837 27.1221541 -5.95214844 27.11352539 C-6.93286316 27.11344986 -7.91357788 27.11337433 -8.92401123 27.11329651 C-9.97518127 27.10813522 -11.02635132 27.10297394 -12.109375 27.09765625 C-13.19132141 27.0962413 -14.27326782 27.09482635 -15.38800049 27.09336853 C-18.8420285 27.08777318 -22.29599159 27.0752215 -25.75 27.0625 C-28.09244698 27.0574844 -30.43489498 27.0529216 -32.77734375 27.04882812 C-38.5182513 27.03780528 -44.25912101 27.02107174 -50 27 C-50 26.67 -50 26.34 -50 26 C-44.18689263 23.99882307 -39.02925113 23.73484921 -32.91015625 23.8046875 C-31.4933683 23.80893234 -31.4933683 23.80893234 -30.04795837 23.81326294 C-27.05267276 23.82439316 -24.05769414 23.8494844 -21.0625 23.875 C-19.0227908 23.88503905 -16.98307688 23.89416328 -14.94335938 23.90234375 C-9.96202823 23.9226013 -4.98135484 23.96176359 0 24 C0 16.08 0 8.16 0 0 Z " fill="#782EFE" transform="translate(104,22)"/>
<path d="M0 0 C0.33 0 0.66 0 1 0 C1.24774716 7.91048815 1.46676039 15.82105186 1.65021229 23.73326683 C1.73629823 27.40818038 1.83186451 31.0823121 1.94995117 34.75634766 C2.06378095 38.30923579 2.15159116 41.86194286 2.22220421 45.41594315 C2.26848741 47.41583333 2.34095227 49.41506314 2.41401672 51.41415405 C2.54538423 59.40328277 1.64432784 65.35904187 -3 72 C-3.52945724 72.52137543 -4.05891449 73.04275085 -4.60441589 73.57992554 C-6.26448513 75.06109319 -6.26448513 75.06109319 -7 78 C-9.97 78.495 -9.97 78.495 -13 79 C-11.515 78.505 -11.515 78.505 -10 78 C-9.9175 77.0925 -9.835 76.185 -9.75 75.25 C-8.87419062 71.45482602 -7.77767824 70.61895377 -5 68 C-0.00093452 61.45578981 -0.49504329 55.22927984 -0.64453125 47.2265625 C-0.65679888 45.21111791 -0.66906271 43.19567329 -0.68109417 41.18022728 C-0.70296235 38.37459296 -0.74348164 35.56933893 -0.78363037 32.76391602 C-0.85024274 27.82868595 -0.88659506 22.89313399 -0.92399597 17.95761108 C-0.94578168 15.33223723 -0.97452506 12.70691062 -1.01069641 10.08169556 C-1.03017586 8.31383194 -1.03017586 8.31383194 -1.05004883 6.51025391 C-1.07147697 4.94641464 -1.07147697 4.94641464 -1.09333801 3.35098267 C-1 1 -1 1 0 0 Z " fill="#8B7CE2" transform="translate(148,59)"/>
<path d="M0 0 C0 2 0 2 -1.375 3.625 C-3 5 -3 5 -5 5 C-4.99870118 5.55438248 -4.99740236 6.10876495 -4.99606419 6.6799469 C-4.96681265 20.19382455 -4.97674559 33.70718972 -5.02846622 47.2210083 C-5.05230232 53.75638621 -5.06327238 60.29125431 -5.04467773 66.82666016 C-5.02720281 73.13583007 -5.04373523 79.44408478 -5.08367729 85.75314331 C-5.09295916 88.15801414 -5.09006365 90.56296433 -5.07469368 92.96780396 C-5.05522785 96.34153343 -5.07936928 99.71238277 -5.11352539 103.0859375 C-5.0977092 104.07640579 -5.08189301 105.06687408 -5.06559753 106.08735657 C-5.19133243 112.55743828 -6.69175869 115.80398932 -11.28629208 120.38345337 C-11.85181569 120.91691376 -12.41733931 121.45037415 -13 122 C-14.0828125 123.2684375 -14.0828125 123.2684375 -15.1875 124.5625 C-17 126 -17 126 -19.25 125.75 C-20.11625 125.37875 -20.11625 125.37875 -21 125 C-20.34 125 -19.68 125 -19 125 C-18.9278125 124.41089844 -18.855625 123.82179688 -18.78125 123.21484375 C-17.46998772 119.4974152 -14.18852847 118.03205027 -11.03125 115.87890625 C-8.13134708 113.19649605 -8.0790075 110.79617757 -7.90828323 106.91488647 C-7.85757327 104.29499273 -7.84519918 101.67702535 -7.84228516 99.05664062 C-7.83720444 98.05932419 -7.83212372 97.06200775 -7.82688904 96.0344696 C-7.81620389 93.87265393 -7.80757647 91.71082733 -7.80076981 89.54899597 C-7.78896454 86.12786098 -7.76950899 82.70685129 -7.74765015 79.2857666 C-7.68607681 69.56018224 -7.63193403 59.83461231 -7.59863281 50.10888672 C-7.57770653 44.1572835 -7.54242443 38.20591153 -7.49787521 32.25444031 C-7.48370429 29.98665586 -7.47499032 27.71883054 -7.47182083 25.45100403 C-7.46692073 22.28154214 -7.44378701 19.11269638 -7.41650391 15.94335938 C-7.41951004 15.00606491 -7.42251617 14.06877045 -7.4256134 13.10307312 C-7.36379285 8.2752048 -7.20334221 4.88864163 -4 1 C-2 0 -2 0 0 0 Z " fill="#6D62B6" transform="translate(160,12)"/>
<path d="M0 0 C0.66 1.32 1.32 2.64 2 4 C-3.66937754 9.79822703 -8.99805686 11.83645214 -17 13 C-19.31 13 -21.62 13 -24 13 C-24 20.92 -24 28.84 -24 37 C-24.99 37 -25.98 37 -27 37 C-27 28.75 -27 20.5 -27 12 C-22.20371002 9.60185501 -17.65172105 8.85994779 -12.41015625 7.87890625 C-9.07417858 7.01911819 -6.86085363 5.86577411 -4 4 C-3.01 3.67 -2.02 3.34 -1 3 C-0.67 2.01 -0.34 1.02 0 0 Z " fill="#F1D5FC" transform="translate(135,8)"/>
<path d="M0 0 C1.01766449 -0.00095673 2.03532898 -0.00191345 3.08383179 -0.00289917 C5.22353172 -0.00357641 7.36323376 -0.00175408 9.50292969 0.00244141 C12.77022927 0.00780723 16.03739209 0.00247519 19.3046875 -0.00390625 C21.3906253 -0.0032456 23.47656302 -0.00196472 25.5625 0 C26.53450348 -0.00202423 27.50650696 -0.00404846 28.50796509 -0.00613403 C33.16899175 0.00992839 37.56395191 0.16881647 42.1484375 1.1328125 C42.1484375 1.7928125 42.1484375 2.4528125 42.1484375 3.1328125 C21.3584375 3.4628125 0.5684375 3.7928125 -20.8515625 4.1328125 C-20.1915625 3.8028125 -19.5315625 3.4728125 -18.8515625 3.1328125 C-18.8515625 2.4728125 -18.8515625 1.8128125 -18.8515625 1.1328125 C-12.53083456 0.19719982 -6.38436474 -0.01335127 0 0 Z " fill="#190947" transform="translate(62.8515625,17.8671875)"/>
<path d="M0 0 C-0.99 0 -1.98 0 -3 0 C-3.103125 0.78375 -3.20625 1.5675 -3.3125 2.375 C-4 5 -4 5 -7 7 C-9.50883484 7.25396729 -9.50883484 7.25396729 -12.5378418 7.25878906 C-13.67299728 7.26509338 -14.80815277 7.27139771 -15.97770691 7.27789307 C-17.20580582 7.2738446 -18.43390472 7.26979614 -19.69921875 7.265625 C-20.96337112 7.26753845 -22.2275235 7.2694519 -23.52998352 7.27142334 C-26.2091736 7.27278596 -28.88800038 7.27008689 -31.56713867 7.26074219 C-34.98206941 7.24940531 -38.39668373 7.25587126 -41.81160259 7.26788712 C-45.08665213 7.27691028 -48.36166505 7.27056351 -51.63671875 7.265625 C-53.46368538 7.27169769 -53.46368538 7.27169769 -55.32756042 7.27789307 C-61.57289857 7.24368326 -67.0252994 6.85652195 -73 5 C-73 4.34 -73 3.68 -73 3 C-72.13575409 3.16076523 -71.27150818 3.32153046 -70.381073 3.48716736 C-67.17142671 3.97399843 -64.14561611 4.15661092 -60.90283203 4.20532227 C-59.13167526 4.2352401 -59.13167526 4.2352401 -57.32473755 4.26576233 C-56.06515228 4.28247482 -54.80556702 4.29918732 -53.5078125 4.31640625 C-52.20673553 4.33718735 -50.90565857 4.35796844 -49.56515503 4.37937927 C-46.12277281 4.43431116 -42.6803337 4.48384652 -39.237854 4.53222656 C-35.71841427 4.58265387 -32.19905614 4.6382286 -28.6796875 4.69335938 C-21.78652921 4.80058708 -14.89329704 4.90210912 -8 5 C-7.71125 4.195625 -7.4225 3.39125 -7.125 2.5625 C-5.35420017 -1.4709885 -3.85559812 -1.15667944 0 0 Z " fill="#411AA9" transform="translate(123,114)"/>
<path d="M0 0 C0.33 1.65 0.66 3.3 1 5 C0.2575 4.9175 -0.485 4.835 -1.25 4.75 C-4.61351005 4.75993085 -4.61351005 4.75993085 -8 9 C-1.07 9.495 -1.07 9.495 6 10 C4 13 4 13 2.07641602 13.44824219 C1.30998779 13.48079102 0.54355957 13.51333984 -0.24609375 13.546875 C-1.08333984 13.58683594 -1.92058594 13.62679687 -2.78320312 13.66796875 C-3.65912109 13.69503906 -4.53503906 13.72210938 -5.4375 13.75 C-6.74557617 13.81380859 -6.74557617 13.81380859 -8.08007812 13.87890625 C-14.55680216 14.14773261 -14.55680216 14.14773261 -18 13 C-18 12.34 -18 11.68 -18 11 C-16.02 10.67 -14.04 10.34 -12 10 C-11.7525 9.071875 -11.505 8.14375 -11.25 7.1875 C-9.91074151 3.77239085 -9.14157515 2.75558611 -6 1 C-3.86604641 0.30960325 -2.23825902 0 0 0 Z " fill="#776BAC" transform="translate(128,35)"/>
<path d="M0 0 C0.33 0 0.66 0 1 0 C1.33 2.97 1.66 5.94 2 9 C2.33 9 2.66 9 3 9 C3 14.28 3 19.56 3 25 C-1.22763409 27.11381704 -6.792588 26.2293903 -11.4375 26.25 C-12.59572266 26.270625 -13.75394531 26.29125 -14.94726562 26.3125 C-16.61112305 26.32023437 -16.61112305 26.32023437 -18.30859375 26.328125 C-19.83697876 26.34214355 -19.83697876 26.34214355 -21.39624023 26.35644531 C-24 26 -24 26 -27 23 C-18.09 23 -9.18 23 0 23 C0 15.41 0 7.82 0 0 Z " fill="#4A4574" transform="translate(160,115)"/>
<path d="M0 0 C0.33 0 0.66 0 1 0 C1.17015625 0.89460938 1.3403125 1.78921875 1.515625 2.7109375 C3.90548585 14.63481771 6.83957508 23.108626 14.48828125 32.65234375 C14.98714844 33.42707031 15.48601563 34.20179687 16 35 C15.67 35.99 15.34 36.98 15 38 C6.39875486 28.88980544 -0.36907346 19.5608934 -0.125 6.625 C-0.10695312 5.37976563 -0.08890625 4.13453125 -0.0703125 2.8515625 C-0.04710937 1.91054687 -0.02390625 0.96953125 0 0 Z " fill="#260F63" transform="translate(3,88)"/>
<path d="M0 0 C5.00019535 0.50849444 9.92131926 1.1500727 14.875 2 C23.53168905 3.37930598 32.25337289 3.64902658 41 4 C41 4.33 41 4.66 41 5 C27.09862882 7.71300954 15.38469581 6.88559833 2 2 C1.34 1.34 0.68 0.68 0 0 Z " fill="#8531FC" transform="translate(31,134)"/>
<path d="M0 0 C0 3 0 3 0 3 Z M-2 3 C-1.67 3 -1.34 3 -1 3 C-1.51441472 8.0584114 -2.16204145 13.04725554 -3 18.0625 C-4.20949341 25.68050326 -4.62463147 33.30494506 -5 41 C-4.34 41 -3.68 41 -3 41 C-2.67 45.29 -2.34 49.58 -2 54 C-6.98682352 49.01317648 -6.32570628 44.27838082 -6.37109375 37.640625 C-6.37093262 36.89748047 -6.37077148 36.15433594 -6.37060547 35.38867188 C-6.37491817 33.16715243 -6.4110596 30.94772218 -6.44921875 28.7265625 C-6.52043068 19.40875499 -5.37660737 11.78300534 -2 3 Z " fill="#3F19A5" transform="translate(15,50)"/>
<path d="M0 0 C0.99 0 1.98 0 3 0 C3 8.58 3 17.16 3 26 C2.01 26 1.02 26 0 26 C0 17.42 0 8.84 0 0 Z " fill="#8537FB" transform="translate(104,22)"/>
<path d="M0 0 C2.15478516 -0.34057617 2.15478516 -0.34057617 4.7890625 -0.29296875 C5.73007813 -0.28330078 6.67109375 -0.27363281 7.640625 -0.26367188 C9.11789063 -0.2259668 9.11789063 -0.2259668 10.625 -0.1875 C12.11386719 -0.16719727 12.11386719 -0.16719727 13.6328125 -0.14648438 C16.08908072 -0.11105743 18.54427285 -0.06166196 21 0 C21 0.99 21 1.98 21 3 C20.44014404 3.0093457 19.88028809 3.01869141 19.3034668 3.02832031 C16.76391854 3.08204507 14.22620889 3.16568187 11.6875 3.25 C10.80642578 3.26417969 9.92535156 3.27835937 9.01757812 3.29296875 C3.9371324 3.33032818 3.9371324 3.33032818 -0.10546875 6.046875 C-0.40066406 6.69140625 -0.69585937 7.3359375 -1 8 C-1.625 5.6875 -1.625 5.6875 -2 3 C-1.34 2.01 -0.68 1.02 0 0 Z " fill="#F2E0FE" transform="translate(139,0)"/>
<path d="M0 0 C0.33 0.66 0.66 1.32 1 2 C0.43152344 2.35191406 -0.13695313 2.70382813 -0.72265625 3.06640625 C-5.59997394 6.1849583 -9.67725472 9.40636331 -13.58984375 13.6796875 C-15 15 -15 15 -17 15 C-17.2475 15.763125 -17.495 16.52625 -17.75 17.3125 C-19.10995558 20.2364045 -20.31585826 21.30004356 -23 23 C-20.75538174 14.02152695 -14.71908339 7.75590358 -7 3 C-4.69031102 1.84297244 -2.42392485 0.90897182 0 0 Z " fill="#331585" transform="translate(35,28)"/>
<path d="M0 0 C1.21558594 0.31710938 2.43117187 0.63421875 3.68359375 0.9609375 C9.77497111 2.31457691 15.84375542 2.45275549 22.0625 2.625 C23.79016602 2.68300781 23.79016602 2.68300781 25.55273438 2.7421875 C28.36833796 2.83565152 31.1839486 2.92141252 34 3 C31.29513961 5.70486039 29.85250885 5.25779724 26.07421875 5.265625 C24.88505859 5.26820312 23.69589844 5.27078125 22.47070312 5.2734375 C21.22224609 5.26570313 19.97378906 5.25796875 18.6875 5.25 C16.8322168 5.26160156 16.8322168 5.26160156 14.93945312 5.2734375 C13.74642578 5.27085938 12.55339844 5.26828125 11.32421875 5.265625 C10.23197998 5.26336914 9.13974121 5.26111328 8.0144043 5.25878906 C4.96466684 4.99696662 2.75881448 4.28900415 0 3 C0 2.01 0 1.02 0 0 Z " fill="#1F0D58" transform="translate(44,108)"/>
<path d="M0 0 C0.66 0.33 1.32 0.66 2 1 C1.35289062 2.04414063 0.70578125 3.08828125 0.0390625 4.1640625 C-2.88399878 10.00760967 -2.59659669 15.96295373 -2.625 22.375 C-2.65042077 24.71625259 -2.68385325 27.05743647 -2.7265625 29.3984375 C-2.73252441 30.42630371 -2.73848633 31.45416992 -2.74462891 32.51318359 C-3 35 -3 35 -5 37 C-4.98259766 35.12054688 -4.98259766 35.12054688 -4.96484375 33.203125 C-4.95546284 31.55208483 -4.94636296 29.90104304 -4.9375 28.25 C-4.92912109 27.425 -4.92074219 26.6 -4.91210938 25.75 C-4.90727539 24.55117188 -4.90727539 24.55117188 -4.90234375 23.328125 C-4.89710693 22.5949707 -4.89187012 21.86181641 -4.88647461 21.10644531 C-5.00267989 18.95027512 -5.47482542 17.08803714 -6 15 C-5.76184005 8.80784131 -3.46491492 4.9224806 0 0 Z " fill="#8578D9" transform="translate(153,11)"/>
<path d="M0 0 C1 2 1 2 1.125 4.375 C-0.51248696 8.19580291 -3.14522923 8.78770946 -6.87109375 10.30078125 C-9 11 -9 11 -11 11 C-10.77812436 7.11717622 -10.03752696 6.03669303 -7.1875 3.25 C-3.08812261 0.35632184 -3.08812261 0.35632184 0 0 Z " fill="#A796CF" transform="translate(160,2)"/>
<path d="M0 0 C2.29160319 -0.02692484 4.58329546 -0.04636124 6.875 -0.0625 C8.15117187 -0.07410156 9.42734375 -0.08570313 10.7421875 -0.09765625 C14 0 14 0 16 1 C18.0374763 1.22858114 20.08040303 1.41024278 22.125 1.5625 C23.76855469 1.68818359 23.76855469 1.68818359 25.4453125 1.81640625 C26.28835937 1.87699219 27.13140625 1.93757812 28 2 C28 2.33 28 2.66 28 3 C23.89596637 3.08694042 19.79216871 3.14037149 15.6875 3.1875 C13.93663086 3.22520508 13.93663086 3.22520508 12.15039062 3.26367188 C11.03212891 3.27333984 9.91386719 3.28300781 8.76171875 3.29296875 C7.73006592 3.3086792 6.69841309 3.32438965 5.63549805 3.34057617 C3 3 3 3 1.13989258 1.48168945 C0.57564575 0.74825317 0.57564575 0.74825317 0 0 Z " fill="#201D36" transform="translate(133,138)"/>
<path d="M0 0 C6.93 0 13.86 0 21 0 C21 0.66 21 1.32 21 2 C18.06281233 2.19461488 15.12550068 2.38097593 12.1875 2.5625 C11.35412109 2.61857422 10.52074219 2.67464844 9.66210938 2.73242188 C8.85966797 2.78076172 8.05722656 2.82910156 7.23046875 2.87890625 C6.49207764 2.9260376 5.75368652 2.97316895 4.99291992 3.02172852 C3 3 3 3 0 2 C0 1.34 0 0.68 0 0 Z " fill="#302B56" transform="translate(110,46)"/>
<path d="M0 0 C0.99 0 1.98 0 3 0 C3 0.99 3 1.98 3 3 C2.1028125 3.309375 2.1028125 3.309375 1.1875 3.625 C-1.95764964 5.6019512 -2.61565077 7.55450859 -4 11 C-4.47712344 14.1217805 -4.59946663 17.22089006 -4.6875 20.375 C-4.72166016 21.20644531 -4.75582031 22.03789062 -4.79101562 22.89453125 C-4.87287146 24.92923351 -4.93812701 26.96459208 -5 29 C-5.33 29 -5.66 29 -6 29 C-6.10890711 25.99900412 -6.18773555 23.00203622 -6.25 20 C-6.28351563 19.16082031 -6.31703125 18.32164063 -6.3515625 17.45703125 C-6.44510534 11.4235183 -5.36615081 7.05387132 -2 2 C-1.34 1.34 -0.68 0.68 0 0 Z " fill="#786CC6" transform="translate(157,9)"/>
<path d="M0 0 C0 0.66 0 1.32 0 2 C-6.6 2 -13.2 2 -20 2 C-20 1.34 -20 0.68 -20 0 C-13.75547107 -2.08150964 -6.36775821 -1.37681259 0 0 Z " fill="#1C0B53" transform="translate(105,19)"/>
<path d="M0 0 C0.33 0.99 0.66 1.98 1 3 C-0.61594832 5.04119788 -2.2856382 7.04072937 -4 9 C-4.33 9.99 -4.66 10.98 -5 12 C-6.98 12.33 -8.96 12.66 -11 13 C-10.01 12.67 -9.02 12.34 -8 12 C-7.979375 11.13375 -7.95875 10.2675 -7.9375 9.375 C-6.63479719 4.68526987 -3.81832333 2.81140256 0 0 Z " fill="#8879C9" transform="translate(146,125)"/>
<path d="M0 0 C0 0.33 0 0.66 0 1 C-7.92 1 -15.84 1 -24 1 C-24 0.67 -24 0.34 -24 0 C-15.81969015 -2.84532517 -8.18030985 -2.84532517 0 0 Z " fill="#4E1DFE" transform="translate(78,48)"/>
<path d="M0 0 C1.34592097 1.65651812 2.67518731 3.32655239 4 5 C4.54011719 5.66257812 5.08023437 6.32515625 5.63671875 7.0078125 C6.46623047 8.05582031 6.46623047 8.05582031 7.3125 9.125 C7.84488281 9.78757812 8.37726562 10.45015625 8.92578125 11.1328125 C9.28027344 11.74898437 9.63476562 12.36515625 10 13 C9.67 13.99 9.34 14.98 9 16 C0.80812391 6.95527106 0.80812391 6.95527106 -1 3 C-0.67 2.01 -0.34 1.02 0 0 Z " fill="#30147A" transform="translate(9,110)"/>
<path d="M0 0 C0.66 0.33 1.32 0.66 2 1 C2 3.31 2 5.62 2 8 C1.34 8 0.68 8 0 8 C0.185625 8.78375 0.37125 9.5675 0.5625 10.375 C1.12543691 15.03933441 0.59607604 19.35977729 0 24 C-0.33 24 -0.66 24 -1 24 C-1.02887236 20.18751574 -1.04675492 16.3750593 -1.0625 12.5625 C-1.07087891 11.47388672 -1.07925781 10.38527344 -1.08789062 9.26367188 C-1.09111328 8.22919922 -1.09433594 7.19472656 -1.09765625 6.12890625 C-1.10289307 5.17056885 -1.10812988 4.21223145 -1.11352539 3.22485352 C-1 1 -1 1 0 0 Z " fill="#8132FA" transform="translate(126,113)"/>
<path d="M0 0 C1 2 1 2 0.87890625 3.859375 C-0.38805343 6.94512568 -2.42848264 8.24948049 -5.0625 10.25 C-5.98160156 10.95640625 -6.90070313 11.6628125 -7.84765625 12.390625 C-8.91306641 13.18726563 -8.91306641 13.18726563 -10 14 C-10.66 13.34 -11.32 12.68 -12 12 C-11.30132812 11.38511719 -10.60265625 10.77023438 -9.8828125 10.13671875 C-8.51769531 8.92435547 -8.51769531 8.92435547 -7.125 7.6875 C-6.22007812 6.88699219 -5.31515625 6.08648437 -4.3828125 5.26171875 C-1.86787689 3.04188943 -1.86787689 3.04188943 0 0 Z " fill="#B6A2FA" transform="translate(145,13)"/>
<path d="M0 0 C0.33 0 0.66 0 1 0 C1.33 2.97 1.66 5.94 2 9 C-0.29141286 9.05384521 -2.58318188 9.09272087 -4.875 9.125 C-6.78925781 9.15980469 -6.78925781 9.15980469 -8.7421875 9.1953125 C-12 9 -12 9 -14 7 C-9.38 7 -4.76 7 0 7 C0 4.69 0 2.38 0 0 Z " fill="#3C3463" transform="translate(161,131)"/>
<path d="M0 0 C0.66 0 1.32 0 2 0 C0.35821735 4.77609498 -2.26546702 8.79382904 -5 13 C-5.67578125 11.296875 -5.67578125 11.296875 -6 9 C-4.85546875 6.640625 -4.85546875 6.640625 -3.1875 4.25 C-2.64480469 3.45078125 -2.10210937 2.6515625 -1.54296875 1.828125 C-1.03378906 1.22484375 -0.52460938 0.6215625 0 0 Z " fill="#9888E0" transform="translate(146,118)"/>
<path d="M0 0 C0.33 0.66 0.66 1.32 1 2 C1.66 2.33 2.32 2.66 3 3 C2.01 6.3 1.02 9.6 0 13 C-2.278495 8.44301001 -1.98806307 6.85049146 -1 2 C-0.67 1.34 -0.34 0.68 0 0 Z " fill="#7028FC" transform="translate(31,58)"/>
<path d="M0 0 C-3.4766338 2.14336161 -6.21229195 2.21277626 -10.25 2.125 C-11.32765625 2.10695312 -12.4053125 2.08890625 -13.515625 2.0703125 C-14.33546875 2.04710937 -15.1553125 2.02390625 -16 2 C-16.33 1.34 -16.66 0.68 -17 0 C-11.1314592 -1.14819277 -5.9114744 -0.77313045 0 0 Z " fill="#6B26FE" transform="translate(82,139)"/>
<path d="M0 0 C0.66 0.33 1.32 0.66 2 1 C1.21791649 3.79133871 0.38293093 6.44481903 -1 9 C-3.6875 10 -3.6875 10 -6 10 C-4.6302836 6.00499382 -2.74277578 3.19990508 0 0 Z " fill="#A795C9" transform="translate(139,128)"/>
<path d="M0 0 C0.66 0.33 1.32 0.66 2 1 C0.02 1.99 0.02 1.99 -2 3 C-2 4.65 -2 6.3 -2 8 C-3.98 8.33 -5.96 8.66 -8 9 C-7.34 8.67 -6.68 8.34 -6 8 C-5.896875 7.401875 -5.79375 6.80375 -5.6875 6.1875 C-4.69606181 3.03292395 -2.62311727 1.88326368 0 0 Z " fill="#776AAB" transform="translate(147,129)"/>
<path d="M0 0 C3.75915495 2.5061033 3.72563254 3.81949803 4.6875 8.125 C4.93886719 9.22070312 5.19023438 10.31640625 5.44921875 11.4453125 C5.63097656 12.28835937 5.81273437 13.13140625 6 14 C2.65384242 11.08911495 1.44063976 9.12405178 0.75 4.75 C0.60046875 3.85796875 0.4509375 2.9659375 0.296875 2.046875 C0.19890625 1.37140625 0.1009375 0.6959375 0 0 Z " fill="#7332F6" transform="translate(28,87)"/>
<path d="M0 0 C0.66 0.33 1.32 0.66 2 1 C-1.53199269 7.22303473 -1.53199269 7.22303473 -4 9 C-5.32 8.67 -6.64 8.34 -8 8 C-5.36 5.36 -2.72 2.72 0 0 Z " fill="#9D8DC2" transform="translate(118,37)"/>
<path d="M0 0 C0.66 0.33 1.32 0.66 2 1 C0.68 3.31 -0.64 5.62 -2 8 C-3.32 7.34 -4.64 6.68 -6 6 C-3.375 1.125 -3.375 1.125 0 0 Z " fill="#1B0C6C" transform="translate(12,40)"/>
<path d="M0 0 C0.66 1.32 1.32 2.64 2 4 C0.35 5.32 -1.3 6.64 -3 8 C-3.99 7.34 -4.98 6.68 -6 6 C-4.625 4.5 -4.625 4.5 -3 3 C-2.34 3 -1.68 3 -1 3 C-0.67 2.01 -0.34 1.02 0 0 Z " fill="#F7E3FE" transform="translate(135,8)"/>
<path d="M0 0 C0.99 0.99 1.98 1.98 3 3 C-0.63 3.33 -4.26 3.66 -8 4 C-7.67 3.01 -7.34 2.02 -7 1 C-4.45132831 -0.27433584 -2.82594567 -0.27570202 0 0 Z " fill="#24105D" transform="translate(44,20)"/>
<path d="M0 0 C0 1.98 0 3.96 0 6 C-2 3 -2 3 -2 1 C-4.64 1.66 -7.28 2.32 -10 3 C-8 0 -8 0 -5.5625 -0.75 C-3 -1 -3 -1 0 0 Z " fill="#8C7EE1" transform="translate(130,34)"/>
<path d="M0 0 C0 0.99 0 1.98 0 3 C-2.97 4.32 -5.94 5.64 -9 7 C-6.98222181 2.96444362 -4.85744506 0 0 0 Z " fill="#9787C3" transform="translate(160,6)"/>
<path d="M0 0 C0.33 0.66 0.66 1.32 1 2 C-0.12104533 3.31587941 -1.24696965 4.62760353 -2.375 5.9375 C-3.00148437 6.66839844 -3.62796875 7.39929688 -4.2734375 8.15234375 C-6 10 -6 10 -8 11 C-8 8 -8 8 -5.6875 5.5 C-4.800625 4.675 -3.91375 3.85 -3 3 C-2.401875 2.401875 -1.80375 1.80375 -1.1875 1.1875 C-0.795625 0.795625 -0.40375 0.40375 0 0 Z " fill="#695EAB" transform="translate(153,124)"/>
<path d="M0 0 C0 0.99 0 1.98 0 3 C-4.29 3 -8.58 3 -13 3 C-13 2.67 -13 2.34 -13 2 C-11.58461283 1.66127487 -10.16762037 1.32925376 -8.75 1 C-7.56664063 0.7215625 -7.56664063 0.7215625 -6.359375 0.4375 C-4 0 -4 0 0 0 Z " fill="#471AFE" transform="translate(92,46)"/>
<path d="M0 0 C2.64 0 5.28 0 8 0 C8 0.99 8 1.98 8 3 C2.25 3.125 2.25 3.125 0 2 C0 1.34 0 0.68 0 0 Z " fill="#E8C1FC" transform="translate(152,0)"/>
<path d="M0 0 C9.41002278 0.96355353 9.41002278 0.96355353 14 2 C14 2.33 14 2.66 14 3 C8.34264585 4.55577239 5.20333134 3.24281523 0 1 C0 0.67 0 0.34 0 0 Z " fill="#892FF3" transform="translate(31,134)"/>
<path d="M0 0 C-0.99 0 -1.98 0 -3 0 C-3.33 1.65 -3.66 3.3 -4 5 C-5.32 5 -6.64 5 -8 5 C-6.19780722 -0.02039417 -5.34443412 -1.60333024 0 0 Z " fill="#481DA3" transform="translate(123,114)"/>
<path d="M0 0 C4.29 0 8.58 0 13 0 C7.24321993 2.87839003 6.19101121 2.94902205 0 1 C0 0.67 0 0.34 0 0 Z " fill="#762DF7" transform="translate(40,137)"/>
<path d="M0 0 C0.99 0.33 1.98 0.66 3 1 C2.67 2.65 2.34 4.3 2 6 C0.02 6.33 -1.96 6.66 -4 7 C-3.01 6.67 -2.02 6.34 -1 6 C-0.67 4.02 -0.34 2.04 0 0 Z " fill="#9182B9" transform="translate(139,131)"/>
<path d="M0 0 C0.33 0 0.66 0 1 0 C1.375 2.1875 1.375 2.1875 1 5 C-0.83961648 6.99022836 -2.79186148 8.38989899 -5 10 C-5 6.07176899 -3.48245551 4.93381106 -1 2 C-0.67 1.34 -0.34 0.68 0 0 Z " fill="#7569C0" transform="translate(151,121)"/>
<path d="M0 0 C3.3 0 6.6 0 10 0 C9.67 0.66 9.34 1.32 9 2 C6.35139573 2.59355614 3.70802678 2.74209269 1 3 C0.67 2.01 0.34 1.02 0 0 Z " fill="#8C2EFD" transform="translate(51,46)"/>
<path d="M0 0 C3.63 0 7.26 0 11 0 C11 0.66 11 1.32 11 2 C7.37 2.33 3.74 2.66 0 3 C0 2.01 0 1.02 0 0 Z " fill="#100734" transform="translate(52,18)"/>
<path d="M0 0 C1.98 0 3.96 0 6 0 C6 0.66 6 1.32 6 2 C6.66 2.33 7.32 2.66 8 3 C5.03 3 2.06 3 -1 3 C-0.67 2.01 -0.34 1.02 0 0 Z " fill="#EAD6FB" transform="translate(146,0)"/>
<path d="M0 0 C0 1.32 0 2.64 0 4 C-1.65 4.66 -3.3 5.32 -5 6 C-5 3 -5 3 -3.625 1.3125 C-2 0 -2 0 0 0 Z " fill="#1F0D57" transform="translate(30,24)"/>
<path d="M0 0 C0 0.99 0 1.98 0 3 C-3.63 3 -7.26 3 -11 3 C-11 2.67 -11 2.34 -11 2 C-7.12315913 0.80712589 -4.08378077 0 0 0 Z " fill="#3E17FE" transform="translate(65,46)"/>
<path d="M0 0 C0.6875 1.6875 0.6875 1.6875 1 4 C-0.3125 6.75 -0.3125 6.75 -2 9 C-2.66 9 -3.32 9 -4 9 C-2.94124926 5.59687262 -1.99097846 2.98646769 0 0 Z " fill="#9787E3" transform="translate(150,12)"/>
<path d="M0 0 C0.33 0.66 0.66 1.32 1 2 C-1.31 3.65 -3.62 5.3 -6 7 C-5.8125 4.625 -5.8125 4.625 -5 2 C-2.4375 0.6875 -2.4375 0.6875 0 0 Z " fill="#5626B2" transform="translate(125,112)"/>
<path d="M0 0 C0.33 1.65 0.66 3.3 1 5 C0.67 4.34 0.34 3.68 0 3 C-2.31 3 -4.62 3 -7 3 C-6.67 2.34 -6.34 1.68 -6 1 C-3.911361 0.32624548 -2.19636905 0 0 0 Z " fill="#8476D6" transform="translate(128,35)"/>
<path d="M0 0 C0.99 0 1.98 0 3 0 C3 0.99 3 1.98 3 3 C1.02 3.66 -0.96 4.32 -3 5 C-1.125 1.125 -1.125 1.125 0 0 Z " fill="#8174B2" transform="translate(157,9)"/>
</svg>
